<svg width="33" height="33" viewBox="0 0 33 33" fill="none" xmlns="http://www.w3.org/2000/svg">
<g clip-path="url(#clip0_1210_2976)">
<path d="M30.5957 0H2.922C1.59635 0 0.524414 1.04657 0.524414 2.3405V30.1284C0.524414 31.4223 1.59635 32.4752 2.922 32.4752H30.5957C31.9214 32.4752 32.9997 31.4223 32.9997 30.1347V2.3405C32.9997 1.04657 31.9214 0 30.5957 0ZM10.1592 27.6737H5.33862V12.1719H10.1592V27.6737ZM7.74889 10.0597C6.20124 10.0597 4.9517 8.81018 4.9517 7.26887C4.9517 5.72757 6.20124 4.47803 7.74889 4.47803C9.29019 4.47803 10.5397 5.72757 10.5397 7.26887C10.5397 8.80384 9.29019 10.0597 7.74889 10.0597ZM28.1981 27.6737H23.3839V20.1385C23.3839 18.3434 23.3522 16.0283 20.8785 16.0283C18.3731 16.0283 17.9925 17.9882 17.9925 20.0116V27.6737H13.1847V12.1719H17.8023V14.2904H17.8657C18.5063 13.0726 20.0793 11.785 22.4198 11.785C27.2975 11.785 28.1981 14.9944 28.1981 19.168V27.6737Z" fill="black"/>
</g>
<defs>
<clipPath id="clip0_1210_2976">
<rect width="32.4752" height="32.4752" fill="white" transform="translate(0.524414)"/>
</clipPath>
</defs>
</svg>
