<svg width="33" height="27" viewBox="0 0 33 27" fill="none" xmlns="http://www.w3.org/2000/svg">
<path d="M10.7242 26.4306C22.976 26.4306 29.6791 16.2776 29.6791 7.47568C29.6791 7.19025 29.6727 6.89848 29.6601 6.61305C30.964 5.67006 32.0893 4.50202 32.9831 3.16383C31.7687 3.70414 30.4793 4.05701 29.159 4.21039C30.5491 3.3771 31.59 2.06802 32.0887 0.525849C30.7809 1.30091 29.3507 1.84765 27.8593 2.14263C26.8545 1.07494 25.5259 0.368005 24.079 0.131118C22.6321 -0.105769 21.1474 0.140589 19.8546 0.832103C18.5617 1.52362 17.5327 2.62177 16.9265 3.95678C16.3204 5.2918 16.1709 6.78931 16.5012 8.21779C13.8531 8.0849 11.2624 7.39699 8.89723 6.19864C6.53201 5.0003 4.44502 3.31827 2.77157 1.26162C1.92103 2.72804 1.66076 4.46331 2.04366 6.11474C2.42656 7.76617 3.4239 9.20984 4.83298 10.1524C3.77513 10.1188 2.74045 9.83395 1.81443 9.32144V9.4039C1.81349 10.9428 2.3455 12.4345 3.32005 13.6256C4.29459 14.8166 5.65152 15.6333 7.16016 15.937C6.18023 16.2051 5.15175 16.2442 4.1543 16.0512C4.58001 17.3746 5.40829 18.5322 6.52354 19.3623C7.63879 20.1923 8.98537 20.6535 10.3753 20.6814C8.01558 22.5351 5.10059 23.5405 2.09986 23.5357C1.56771 23.5349 1.03608 23.5023 0.507812 23.438C3.55623 25.3937 7.10236 26.4325 10.7242 26.4306Z" fill="black"/>
</svg>
